<svg width="32.000000" height="32.000000" viewBox="0 0 32 32" fill="none" xmlns="http://www.w3.org/2000/svg" xmlns:xlink="http://www.w3.org/1999/xlink">
	<desc>
			Created with Pixso.
	</desc>
	<defs>
		<linearGradient x1="16.000000" y1="9.000000" x2="16.000000" y2="23.000000" id="paint_linear_60_1004_0" gradientUnits="userSpaceOnUse">
			<stop stop-color="#FFB0B0"/>
			<stop offset="1.000000" stop-color="#FF4343"/>
		</linearGradient>
	</defs>
	<rect id="Rectangle 21" rx="7.000000" width="32.000000" height="32.000000" fill="#FEF0F0" fill-opacity="1.000000"/>
	<path id="Vector" d="M23.61 11.86C23.36 11.3 23 10.79 22.55 10.37C22.11 9.94 21.58 9.6 21 9.36C20.4 9.12 19.75 8.99 19.1 9C18.19 9 17.3 9.24 16.52 9.7C16.34 9.81 16.16 9.93 16 10.06C15.83 9.93 15.65 9.81 15.47 9.7C14.69 9.24 13.8 9 12.89 9C12.23 9 11.6 9.12 10.99 9.36C10.41 9.6 9.89 9.94 9.44 10.37C8.99 10.79 8.63 11.3 8.38 11.86C8.13 12.45 8 13.07 8 13.71C8 14.31 8.12 14.94 8.37 15.58C8.58 16.11 8.88 16.66 9.26 17.22C9.87 18.11 10.71 19.03 11.74 19.96C13.46 21.51 15.16 22.59 15.24 22.63L15.68 22.9C15.87 23.03 16.12 23.03 16.31 22.9L16.75 22.63C16.83 22.58 18.53 21.51 20.25 19.96C21.28 19.03 22.12 18.11 22.73 17.22C23.11 16.66 23.41 16.11 23.62 15.58C23.87 14.94 24 14.31 24 13.71C24 13.07 23.87 12.45 23.61 11.86Z" fill="url(#paint_linear_60_1004_0)" fill-opacity="1.000000" fill-rule="nonzero"/>
</svg>
