<?xml version="1.0" encoding="iso-8859-1"?>
<!-- Generator: Adobe Illustrator 17.1.0, SVG Export Plug-In . SVG Version: 6.00 Build 0)  -->
<!DOCTYPE svg PUBLIC "-//W3C//DTD SVG 1.0//EN" "http://www.w3.org/TR/2001/REC-SVG-20010904/DTD/svg10.dtd">
<svg version="1.0" xmlns="http://www.w3.org/2000/svg" xmlns:xlink="http://www.w3.org/1999/xlink" x="0px" y="0px" width="512px"
	 height="512px" viewBox="0 0 110 110" style="enable-background:new 0 0 110 110;" xml:space="preserve">
<g id="Artboard" style="display:none;">
	
		<rect x="-447.5" y="-453.5" style="display:inline;fill:#808080;stroke:#000000;stroke-miterlimit:10;" width="1401" height="740"/>
</g>
<g id="R-Multicolor" style="display:none;">
	<circle style="display:inline;fill:#25B7D3;" cx="55" cy="55" r="55"/>
	<g style="display:inline;">
		<g>
			<path style="fill:#0484AB;" d="M84.486,45.962L68,39.254c-1.59-0.636-3.408-0.189-4.522,1.111
				c-4.506,10.943-17.358,25.359-26.793,24.603H30c-4.283,0-7,4.577-7,8.86v0.14c0,3.44,1.137,5.752,6.089,7.435
				C34.063,83.093,51,82.968,51,82.968h32c2.209,0,4-1.791,4-4v-4v-24v-1.292C87,48.04,86.005,46.57,84.486,45.962z"/>
		</g>
		<g>
			<path style="fill:#059BBF;" d="M68,39.254c-1.59-0.636-3.408-0.189-4.522,1.111c-4.506,10.943-17.358,25.359-26.793,24.603H30
				c-4.283,0-7,4.577-7,8.86v0.14c0,3.44,1.137,5.752,6.089,7.435c1.35,0.458,3.583,0.783,6.118,1.013L75.37,42.253L68,39.254z"/>
		</g>
		<g>
			<path style="fill:#DF2C2C;" d="M87,73.27c-23,0-17.5,3.688-31,3.688c-13.121,0-31.905-3.777-32.95-3.99
				c-0.031,0.276-0.05,0.558-0.05,0.85v0.14c0,3.44,1.137,5.752,6.089,7.435C34.063,83.083,51,82.958,51,82.958h32
				c2.209,0,4-1.791,4-4V73.27z"/>
		</g>
		<g>
			<path style="fill:#E2E4E5;" d="M87,78.998c0,2.21-1.79,4-4,4H51c0,0-16.94,0.12-21.91-1.57c-2.06-0.7-3.46-1.51-4.39-2.46
				c0.1,0.01,0.199,0.026,0.3,0.03c44,1.97,50,0,50,0H87z"/>
		</g>
		<g>
			<path style="fill:#FA5655;" d="M23.051,72.968c-0.031,0.276-0.05,0.558-0.05,0.85v0.14c0,3.44,1.137,5.752,6.089,7.435
				c1.351,0.459,3.589,0.784,6.128,1.014l6.459-6.458C32.219,74.813,23.743,73.109,23.051,72.968z"/>
		</g>
		<g>
			<path style="fill:#21B2D1;" d="M55.667,76.968h2c0-6.48,8.032-13.083,15.917-13.083c5.325,0,10.071-1.369,13.417-3.788v-2.58
				c-2.97,2.773-7.819,4.368-13.417,4.368C64.542,61.885,55.667,69.356,55.667,76.968z"/>
		</g>
		<g>
			<path style="fill:#FACB1B;" d="M44.341,61.851c-0.768,0.64-0.945,1.749-0.416,2.596l2.984,4.774
				c0.287,0.458,0.746,0.781,1.275,0.895s1.081,0.009,1.53-0.291l11.256-7.504c0.499-0.332,0.822-0.871,0.881-1.467
				c0.059-0.596-0.152-1.188-0.576-1.611l-4.983-4.983c-0.731-0.731-1.9-0.784-2.695-0.122L44.341,61.851z"/>
		</g>
		<g>
			<path style="fill:#DF2C2C;" d="M87,49.676v7.84c-2.97,2.78-7.82,4.37-13.42,4.37c-2.06,0-4.11,0.39-6.05,1.09
				c-6.14-4.53-10.24-10.87-10.66-11.53c2.81-3.63,5.14-7.54,6.6-11.08c1.12-1.3,2.94-1.75,4.53-1.11l16.48,6.71
				C86,46.566,87,48.046,87,49.676z"/>
		</g>
		<g>
			<path style="fill:#FA5655;" d="M46.909,69.222l-2.984-4.774c-0.227-0.364-0.317-0.775-0.293-1.178
				c-2.407,1.221-4.778,1.865-6.963,1.688h-6.68c-2.98,0-5.2,2.21-6.27,5c0.931,0,15.081,6.087,23.503-0.365
				C47.105,69.482,46.996,69.361,46.909,69.222z"/>
		</g>
		<g>
			<path style="fill:#FBE158;" d="M56.292,54.26c-0.731-0.731-1.9-0.785-2.695-0.122l-9.257,7.713
				c-0.768,0.64-0.945,1.749-0.416,2.597l2.984,4.774c0.192,0.308,0.467,0.547,0.784,0.71l12.136-12.136L56.292,54.26z"/>
		</g>
		<g>
			<path style="fill:#FBE158;" d="M68,39.256l5.97,2.431c-0.18-4.229-1.262-6.75-2.97-6.75c-0.974,0-3.835,3.869-3.986,4.074
				C67.347,39.054,67.679,39.127,68,39.256z"/>
		</g>
		<g>
			<path style="fill:#FA5655;" d="M68,39.256c-1.59-0.64-3.41-0.19-4.53,1.11c-1.46,3.54-3.79,7.45-6.6,11.08
				c0.24,0.377,1.682,2.606,4.016,5.292l14.482-14.481L68,39.256z"/>
		</g>
		<g>
			<path style="fill:#FFFFFF;" d="M25,78.998c-0.1-0.005-0.2-0.021-0.3-0.03c0.93,0.95,2.33,1.76,4.39,2.46
				c1.391,0.473,3.722,0.804,6.355,1.036l2.946-2.946C34.367,79.388,29.935,79.219,25,78.998z"/>
		</g>
		<g>
			<path style="fill:#FACB1B;" d="M71.169,55.901c-1.439,2.026-4.248,2.503-6.274,1.064l-7.746-5.5
				c-0.901-0.64-1.112-1.888-0.473-2.789l2.895-4.077c0.64-0.901,1.888-1.112,2.789-0.473l7.746,5.5
				C72.132,51.065,72.608,53.875,71.169,55.901z"/>
		</g>
		<g>
			<path style="fill:#FBE158;" d="M62.36,44.126c-0.901-0.64-2.149-0.428-2.789,0.473l-2.895,4.077
				c-0.64,0.9-0.428,2.149,0.473,2.789l5.269,3.742l6.455-6.455L62.36,44.126z"/>
		</g>
	</g>
</g>
<g id="Multicolor">
	<g>
		<g>
			<path style="fill:#0484AB;" d="M84.486,45.962L68,39.254c-1.59-0.636-3.408-0.189-4.522,1.111
				c-4.506,10.943-17.358,25.359-26.793,24.603H30c-4.283,0-7,4.577-7,8.86v0.14c0,3.44,1.137,5.752,6.089,7.435
				C34.063,83.093,51,82.968,51,82.968h32c2.209,0,4-1.791,4-4v-4v-24v-1.292C87,48.04,86.005,46.57,84.486,45.962z"/>
		</g>
		<g>
			<path style="fill:#059BBF;" d="M68,39.254c-1.59-0.636-3.408-0.189-4.522,1.111c-4.506,10.943-17.358,25.359-26.793,24.603H30
				c-4.283,0-7,4.577-7,8.86v0.14c0,3.44,1.137,5.752,6.089,7.435c1.35,0.458,3.583,0.783,6.118,1.013L75.37,42.253L68,39.254z"/>
		</g>
		<g>
			<path style="fill:#DF2C2C;" d="M87,73.27c-23,0-17.5,3.688-31,3.688c-13.121,0-31.905-3.777-32.95-3.99
				c-0.031,0.276-0.05,0.558-0.05,0.85v0.14c0,3.44,1.137,5.752,6.089,7.435C34.063,83.083,51,82.958,51,82.958h32
				c2.209,0,4-1.791,4-4V73.27z"/>
		</g>
		<g>
			<path style="fill:#E2E4E5;" d="M87,78.998c0,2.21-1.79,4-4,4H51c0,0-16.94,0.12-21.91-1.57c-2.06-0.7-3.46-1.51-4.39-2.46
				c0.1,0.01,0.199,0.026,0.3,0.03c44,1.97,50,0,50,0H87z"/>
		</g>
		<g>
			<path style="fill:#FA5655;" d="M23.051,72.968c-0.031,0.276-0.05,0.558-0.05,0.85v0.14c0,3.44,1.137,5.752,6.089,7.435
				c1.351,0.459,3.589,0.784,6.128,1.014l6.459-6.458C32.219,74.813,23.743,73.109,23.051,72.968z"/>
		</g>
		<g>
			<path style="fill:#21B2D1;" d="M55.667,76.968h2c0-6.48,8.032-13.083,15.917-13.083c5.325,0,10.071-1.369,13.417-3.788v-2.58
				c-2.97,2.773-7.819,4.368-13.417,4.368C64.542,61.885,55.667,69.356,55.667,76.968z"/>
		</g>
		<g>
			<path style="fill:#FACB1B;" d="M44.341,61.851c-0.768,0.64-0.945,1.749-0.416,2.596l2.984,4.774
				c0.287,0.458,0.746,0.781,1.275,0.895s1.081,0.009,1.53-0.291l11.256-7.504c0.499-0.332,0.822-0.871,0.881-1.467
				c0.059-0.596-0.152-1.188-0.576-1.611l-4.983-4.983c-0.731-0.731-1.9-0.784-2.695-0.122L44.341,61.851z"/>
		</g>
		<g>
			<path style="fill:#DF2C2C;" d="M87,49.676v7.84c-2.97,2.78-7.82,4.37-13.42,4.37c-2.06,0-4.11,0.39-6.05,1.09
				c-6.14-4.53-10.24-10.87-10.66-11.53c2.81-3.63,5.14-7.54,6.6-11.08c1.12-1.3,2.94-1.75,4.53-1.11l16.48,6.71
				C86,46.566,87,48.046,87,49.676z"/>
		</g>
		<g>
			<path style="fill:#FA5655;" d="M46.909,69.222l-2.984-4.774c-0.227-0.364-0.317-0.775-0.293-1.178
				c-2.407,1.221-4.778,1.865-6.963,1.688h-6.68c-2.98,0-5.2,2.21-6.27,5c0.931,0,15.081,6.087,23.503-0.365
				C47.105,69.482,46.996,69.361,46.909,69.222z"/>
		</g>
		<g>
			<path style="fill:#FBE158;" d="M56.292,54.26c-0.731-0.731-1.9-0.785-2.695-0.122l-9.257,7.713
				c-0.768,0.64-0.945,1.749-0.416,2.597l2.984,4.774c0.192,0.308,0.467,0.547,0.784,0.71l12.136-12.136L56.292,54.26z"/>
		</g>
		<g>
			<path style="fill:#FBE158;" d="M68,39.256l5.97,2.431c-0.18-4.229-1.262-6.75-2.97-6.75c-0.974,0-3.835,3.869-3.986,4.074
				C67.347,39.054,67.679,39.127,68,39.256z"/>
		</g>
		<g>
			<path style="fill:#FA5655;" d="M68,39.256c-1.59-0.64-3.41-0.19-4.53,1.11c-1.46,3.54-3.79,7.45-6.6,11.08
				c0.24,0.377,1.682,2.606,4.016,5.292l14.482-14.481L68,39.256z"/>
		</g>
		<g>
			<path style="fill:#FFFFFF;" d="M25,78.998c-0.1-0.005-0.2-0.021-0.3-0.03c0.93,0.95,2.33,1.76,4.39,2.46
				c1.391,0.473,3.722,0.804,6.355,1.036l2.946-2.946C34.367,79.388,29.935,79.219,25,78.998z"/>
		</g>
		<g>
			<path style="fill:#FACB1B;" d="M71.169,55.901c-1.439,2.026-4.248,2.503-6.274,1.064l-7.746-5.5
				c-0.901-0.64-1.112-1.888-0.473-2.789l2.895-4.077c0.64-0.901,1.888-1.112,2.789-0.473l7.746,5.5
				C72.132,51.065,72.608,53.875,71.169,55.901z"/>
		</g>
		<g>
			<path style="fill:#FBE158;" d="M62.36,44.126c-0.901-0.64-2.149-0.428-2.789,0.473l-2.895,4.077
				c-0.64,0.9-0.428,2.149,0.473,2.789l5.269,3.742l6.455-6.455L62.36,44.126z"/>
		</g>
	</g>
</g>
<g id="Blue" style="display:none;">
	<g style="display:inline;">
		<g>
			<path style="fill:#0081A1;" d="M84.509,45.962l-16.485-6.707c-1.59-0.637-3.408-0.189-4.522,1.11
				c-4.507,10.943-17.358,25.359-26.794,24.603h-6.684c-4.283,0-7,4.578-7,8.86v0.14c0,3.44,1.137,5.752,6.09,7.436
				c4.973,1.689,21.91,1.564,21.91,1.564h32c2.209,0,4-1.791,4-4v-4v-24v-1.291C87.024,48.04,86.028,46.569,84.509,45.962z"/>
		</g>
		<g>
			<path style="fill:#009FC7;" d="M68.024,39.255c-1.59-0.637-3.408-0.189-4.522,1.11c-4.507,10.943-17.358,25.359-26.794,24.603
				h-6.684c-4.283,0-7,4.578-7,8.86v0.14c0,3.44,1.137,5.752,6.09,7.436c1.35,0.459,3.583,0.783,6.117,1.014l40.163-40.164
				L68.024,39.255z"/>
		</g>
		<g>
			<path style="fill:#0C333D;" d="M87.024,73.271c-23,0-17.5,3.688-31,3.688c-13.121,0-31.904-3.777-32.949-3.99
				c-0.032,0.276-0.051,0.559-0.051,0.85v0.141c0,3.439,1.137,5.752,6.09,7.436c4.973,1.689,21.91,1.564,21.91,1.564h32
				c2.209,0,4-1.791,4-4V73.271z"/>
		</g>
		<g>
			<path style="fill:#E1F5FA;" d="M87.024,78.998c0,2.21-1.79,4-4,4h-32c0,0-16.94,0.12-21.91-1.569
				c-2.059-0.7-3.46-1.511-4.39-2.461c0.1,0.011,0.199,0.025,0.3,0.03c44,1.97,50,0,50,0H87.024z"/>
		</g>
		<g>
			<path style="fill:#0F6175;" d="M23.075,72.968c-0.032,0.276-0.051,0.559-0.051,0.85v0.141c0,3.439,1.137,5.752,6.09,7.436
				c1.352,0.459,3.588,0.783,6.127,1.014l6.459-6.459C32.242,74.813,23.766,73.108,23.075,72.968z"/>
		</g>
		<g>
			<path style="fill:#BBE7F2;" d="M55.691,76.968h2c0-6.48,8.032-13.083,15.917-13.083c5.324,0,10.07-1.369,13.416-3.788v-2.58
				c-2.97,2.773-7.819,4.368-13.416,4.368C64.565,61.885,55.691,69.356,55.691,76.968z"/>
		</g>
		<g>
			<path style="fill:#BBE7F2;" d="M44.364,61.852c-0.767,0.64-0.945,1.748-0.415,2.597l2.983,4.774
				c0.287,0.459,0.746,0.781,1.275,0.895c0.528,0.114,1.08,0.01,1.53-0.291l11.257-7.504c0.498-0.332,0.821-0.871,0.88-1.467
				c0.06-0.597-0.152-1.188-0.575-1.611l-4.984-4.983c-0.731-0.731-1.899-0.784-2.694-0.122L44.364,61.852z"/>
		</g>
		<g>
			<path style="fill:#009FC7;" d="M87.024,49.677v7.84c-2.97,2.779-7.82,4.37-13.42,4.37c-2.061,0-4.109,0.39-6.05,1.089
				c-6.14-4.529-10.24-10.869-10.66-11.529c2.81-3.63,5.14-7.54,6.601-11.08c1.119-1.3,2.939-1.75,4.529-1.109l16.48,6.709
				C86.024,46.566,87.024,48.046,87.024,49.677z"/>
		</g>
		<g>
			<path style="fill:#00B7E5;" d="M46.932,69.222l-2.983-4.774c-0.227-0.364-0.317-0.775-0.293-1.178
				c-2.407,1.221-4.777,1.865-6.963,1.688h-6.681c-2.979,0-5.199,2.211-6.27,5c0.932,0,15.081,6.088,23.503-0.365
				C47.128,69.482,47.02,69.361,46.932,69.222z"/>
		</g>
		<g>
			<path style="fill:#E1F5FA;" d="M56.315,54.26c-0.731-0.731-1.899-0.785-2.694-0.122l-9.257,7.713
				c-0.767,0.641-0.945,1.749-0.415,2.598l2.983,4.774c0.192,0.308,0.467,0.547,0.783,0.71l12.137-12.136L56.315,54.26z"/>
		</g>
		<g>
			<path style="fill:#E1F5FA;" d="M68.024,39.257l5.971,2.431c-0.18-4.229-1.263-6.751-2.971-6.751
				c-0.974,0-3.835,3.869-3.985,4.074C67.37,39.054,67.702,39.127,68.024,39.257z"/>
		</g>
		<g>
			<path style="fill:#00B7E5;" d="M68.024,39.257c-1.59-0.641-3.41-0.19-4.529,1.109c-1.461,3.54-3.791,7.45-6.601,11.08
				c0.239,0.377,1.683,2.606,4.016,5.291l14.481-14.481L68.024,39.257z"/>
		</g>
		<g>
			<path style="fill:#FFFFFF;" d="M25.024,78.999c-0.101-0.006-0.2-0.021-0.3-0.031c0.93,0.951,2.33,1.76,4.39,2.461
				c1.392,0.473,3.722,0.804,6.355,1.035l2.945-2.945C34.391,79.388,29.958,79.22,25.024,78.999z"/>
		</g>
		<g>
			<path style="fill:#BBE7F2;" d="M71.193,55.901c-1.439,2.025-4.248,2.502-6.274,1.063l-7.746-5.501
				c-0.9-0.639-1.112-1.888-0.473-2.788l2.894-4.077c0.64-0.9,1.889-1.112,2.789-0.473l7.746,5.5
				C72.155,51.065,72.631,53.874,71.193,55.901z"/>
		</g>
		<g>
			<path style="fill:#E1F5FA;" d="M62.383,44.126c-0.9-0.639-2.149-0.428-2.789,0.473L56.7,48.676
				c-0.64,0.9-0.428,2.149,0.473,2.788l5.27,3.742l6.454-6.455L62.383,44.126z"/>
		</g>
	</g>
</g>
<g id="R-Blue" style="display:none;">
	<circle style="display:inline;fill:#81D2EB;" cx="55" cy="55" r="55"/>
	<g style="display:inline;">
		<g>
			<path style="fill:#0081A1;" d="M84.485,45.962L68,39.255c-1.59-0.637-3.408-0.19-4.522,1.11
				c-4.507,10.943-17.358,25.359-26.794,24.603H30c-4.283,0-7,4.578-7,8.86v0.14c0,3.44,1.137,5.752,6.09,7.436
				C34.062,83.093,51,82.968,51,82.968h32c2.209,0,4-1.791,4-4v-4v-24v-1.291C87,48.04,86.004,46.569,84.485,45.962z"/>
		</g>
		<g>
			<path style="fill:#009FC7;" d="M68,39.255c-1.59-0.637-3.408-0.19-4.522,1.11c-4.507,10.943-17.358,25.359-26.794,24.603H30
				c-4.283,0-7,4.578-7,8.86v0.14c0,3.44,1.137,5.752,6.09,7.436c1.35,0.459,3.583,0.783,6.117,1.014L75.37,42.253L68,39.255z"/>
		</g>
		<g>
			<path style="fill:#0C333D;" d="M87,73.271c-23,0-17.5,3.688-31,3.688c-13.121,0-31.904-3.777-32.949-3.99
				C23.019,73.244,23,73.526,23,73.817v0.141c0,3.439,1.137,5.752,6.09,7.436C34.062,83.083,51,82.958,51,82.958h32
				c2.209,0,4-1.791,4-4V73.271z"/>
		</g>
		<g>
			<path style="fill:#E1F5FA;" d="M87,78.998c0,2.21-1.79,4-4,4H51c0,0-16.94,0.12-21.91-1.569c-2.059-0.7-3.46-1.511-4.39-2.461
				c0.1,0.011,0.199,0.025,0.3,0.03c44,1.97,50,0,50,0H87z"/>
		</g>
		<g>
			<path style="fill:#0F6175;" d="M23.051,72.968C23.019,73.244,23,73.526,23,73.817v0.141c0,3.439,1.137,5.752,6.09,7.436
				c1.352,0.459,3.588,0.783,6.127,1.014l6.459-6.459C32.219,74.813,23.742,73.108,23.051,72.968z"/>
		</g>
		<g>
			<path style="fill:#BBE7F2;" d="M55.667,76.968h2c0-6.48,8.032-13.083,15.917-13.083c5.324,0,10.07-1.369,13.416-3.788v-2.58
				c-2.97,2.773-7.819,4.368-13.416,4.368C64.541,61.885,55.667,69.356,55.667,76.968z"/>
		</g>
		<g>
			<path style="fill:#BBE7F2;" d="M44.34,61.852c-0.768,0.64-0.945,1.748-0.415,2.597l2.983,4.774
				c0.287,0.459,0.746,0.781,1.275,0.895c0.528,0.114,1.08,0.01,1.53-0.291l11.257-7.504c0.498-0.332,0.821-0.871,0.88-1.467
				c0.06-0.597-0.152-1.188-0.575-1.611l-4.984-4.983c-0.731-0.731-1.899-0.784-2.694-0.122L44.34,61.852z"/>
		</g>
		<g>
			<path style="fill:#009FC7;" d="M87,49.677v7.84c-2.97,2.779-7.82,4.37-13.42,4.37c-2.061,0-4.109,0.39-6.05,1.089
				c-6.14-4.529-10.24-10.869-10.66-11.529c2.81-3.63,5.14-7.54,6.601-11.08c1.119-1.3,2.94-1.75,4.529-1.109l16.48,6.709
				C86,46.566,87,48.046,87,49.677z"/>
		</g>
		<g>
			<path style="fill:#00B7E5;" d="M46.908,69.222l-2.983-4.774c-0.228-0.364-0.317-0.775-0.293-1.178
				c-2.407,1.221-4.777,1.865-6.963,1.688h-6.681c-2.98,0-5.199,2.211-6.27,5c0.932,0,15.081,6.088,23.503-0.365
				C47.104,69.482,46.996,69.361,46.908,69.222z"/>
		</g>
		<g>
			<path style="fill:#E1F5FA;" d="M56.291,54.26c-0.731-0.731-1.899-0.785-2.694-0.122l-9.257,7.713
				c-0.768,0.641-0.945,1.749-0.415,2.598l2.983,4.774c0.192,0.308,0.467,0.547,0.783,0.71l12.137-12.136L56.291,54.26z"/>
		</g>
		<g>
			<path style="fill:#E1F5FA;" d="M68,39.257l5.971,2.431c-0.18-4.229-1.263-6.751-2.971-6.751c-0.974,0-3.835,3.869-3.985,4.074
				C67.347,39.054,67.679,39.127,68,39.257z"/>
		</g>
		<g>
			<path style="fill:#00B7E5;" d="M68,39.257c-1.59-0.641-3.41-0.19-4.529,1.109c-1.461,3.54-3.791,7.45-6.601,11.08
				c0.239,0.377,1.683,2.606,4.016,5.291l14.482-14.48L68,39.257z"/>
		</g>
		<g>
			<path style="fill:#FFFFFF;" d="M25,78.999c-0.101-0.006-0.2-0.021-0.3-0.031c0.93,0.951,2.33,1.76,4.39,2.461
				c1.392,0.473,3.722,0.804,6.356,1.035l2.945-2.945C34.367,79.388,29.935,79.22,25,78.999z"/>
		</g>
		<g>
			<path style="fill:#BBE7F2;" d="M71.169,55.901c-1.439,2.025-4.248,2.502-6.274,1.063l-7.746-5.501
				c-0.9-0.639-1.112-1.888-0.473-2.788l2.895-4.077c0.64-0.9,1.889-1.112,2.789-0.473l7.746,5.5
				C72.131,51.065,72.607,53.874,71.169,55.901z"/>
		</g>
		<g>
			<path style="fill:#E1F5FA;" d="M62.359,44.126c-0.9-0.639-2.149-0.428-2.789,0.473l-2.895,4.077
				c-0.64,0.9-0.428,2.149,0.473,2.788l5.27,3.742l6.454-6.455L62.359,44.126z"/>
		</g>
	</g>
</g>
<g id="Green" style="display:none;">
	<g style="display:inline;">
		<g>
			<path style="fill:#009687;" d="M84.509,45.962l-16.485-6.707c-1.59-0.637-3.408-0.19-4.522,1.11
				c-4.507,10.943-17.358,25.359-26.794,24.603h-6.684c-4.283,0-7,4.578-7,8.86v0.14c0,3.44,1.137,5.752,6.09,7.436
				c4.973,1.689,21.91,1.564,21.91,1.564h32c2.209,0,4-1.791,4-4v-4v-24v-1.291C87.024,48.04,86.028,46.569,84.509,45.962z"/>
		</g>
		<g>
			<path style="fill:#00B8A5;" d="M68.024,39.255c-1.59-0.637-3.408-0.19-4.522,1.11c-4.507,10.943-17.358,25.359-26.794,24.603
				h-6.684c-4.283,0-7,4.578-7,8.86v0.14c0,3.44,1.137,5.752,6.09,7.436c1.35,0.459,3.583,0.783,6.117,1.014l40.163-40.164
				L68.024,39.255z"/>
		</g>
		<g>
			<path style="fill:#0A3631;" d="M87.024,73.271c-23,0-17.5,3.688-31,3.688c-13.121,0-31.904-3.777-32.949-3.99
				c-0.032,0.276-0.051,0.559-0.051,0.85v0.141c0,3.439,1.137,5.752,6.09,7.436c4.973,1.689,21.91,1.564,21.91,1.564h32
				c2.209,0,4-1.791,4-4V73.271z"/>
		</g>
		<g>
			<path style="fill:#D7FCF9;" d="M87.024,78.998c0,2.21-1.79,4-4,4h-32c0,0-16.94,0.12-21.91-1.569
				c-2.059-0.7-3.46-1.511-4.39-2.461c0.1,0.011,0.199,0.025,0.3,0.03c44,1.97,50,0,50,0H87.024z"/>
		</g>
		<g>
			<path style="fill:#14635B;" d="M23.075,72.968c-0.032,0.276-0.051,0.559-0.051,0.85v0.141c0,3.439,1.137,5.752,6.09,7.436
				c1.352,0.459,3.588,0.783,6.127,1.014l6.459-6.459C32.242,74.813,23.766,73.108,23.075,72.968z"/>
		</g>
		<g>
			<path style="fill:#AAF0E9;" d="M55.691,76.968h2c0-6.48,8.032-13.083,15.917-13.083c5.324,0,10.07-1.369,13.416-3.788v-2.58
				c-2.97,2.773-7.819,4.368-13.416,4.368C64.565,61.885,55.691,69.356,55.691,76.968z"/>
		</g>
		<g>
			<path style="fill:#AAF0E9;" d="M44.364,61.852c-0.767,0.64-0.945,1.748-0.415,2.597l2.983,4.774
				c0.287,0.459,0.746,0.781,1.275,0.895c0.528,0.114,1.08,0.01,1.53-0.291l11.257-7.504c0.498-0.332,0.821-0.871,0.88-1.467
				c0.06-0.597-0.152-1.188-0.575-1.611l-4.984-4.983c-0.731-0.731-1.899-0.784-2.694-0.122L44.364,61.852z"/>
		</g>
		<g>
			<path style="fill:#00B8A5;" d="M87.024,49.677v7.84c-2.97,2.779-7.82,4.37-13.42,4.37c-2.061,0-4.109,0.39-6.05,1.089
				c-6.14-4.529-10.24-10.869-10.66-11.529c2.81-3.63,5.14-7.54,6.601-11.08c1.119-1.3,2.939-1.75,4.529-1.109l16.48,6.709
				C86.024,46.566,87.024,48.046,87.024,49.677z"/>
		</g>
		<g>
			<path style="fill:#00D6C1;" d="M46.932,69.222l-2.983-4.774c-0.227-0.364-0.317-0.775-0.293-1.178
				c-2.407,1.221-4.777,1.865-6.963,1.688h-6.681c-2.979,0-5.199,2.211-6.27,5c0.932,0,15.081,6.088,23.503-0.365
				C47.128,69.482,47.02,69.361,46.932,69.222z"/>
		</g>
		<g>
			<path style="fill:#D7FCF9;" d="M56.315,54.26c-0.731-0.731-1.899-0.785-2.694-0.122l-9.257,7.713
				c-0.767,0.641-0.945,1.749-0.415,2.598l2.983,4.774c0.192,0.308,0.467,0.547,0.783,0.71l12.137-12.136L56.315,54.26z"/>
		</g>
		<g>
			<path style="fill:#D7FCF9;" d="M68.024,39.257l5.971,2.431c-0.18-4.229-1.263-6.751-2.971-6.751
				c-0.974,0-3.835,3.869-3.985,4.074C67.37,39.054,67.702,39.127,68.024,39.257z"/>
		</g>
		<g>
			<path style="fill:#00D6C1;" d="M68.024,39.257c-1.59-0.641-3.41-0.19-4.529,1.109c-1.461,3.54-3.791,7.45-6.601,11.08
				c0.239,0.377,1.683,2.606,4.016,5.291l14.481-14.48L68.024,39.257z"/>
		</g>
		<g>
			<path style="fill:#FFFFFF;" d="M25.024,78.999c-0.101-0.006-0.2-0.021-0.3-0.031c0.93,0.951,2.33,1.76,4.39,2.461
				c1.392,0.473,3.722,0.804,6.355,1.035l2.945-2.945C34.391,79.388,29.958,79.22,25.024,78.999z"/>
		</g>
		<g>
			<path style="fill:#AAF0E9;" d="M71.193,55.901c-1.439,2.025-4.248,2.502-6.274,1.063l-7.746-5.501
				c-0.9-0.639-1.112-1.888-0.473-2.788l2.894-4.077c0.64-0.9,1.889-1.112,2.789-0.473l7.746,5.5
				C72.155,51.065,72.631,53.874,71.193,55.901z"/>
		</g>
		<g>
			<path style="fill:#D7FCF9;" d="M62.383,44.126c-0.9-0.639-2.149-0.428-2.789,0.473L56.7,48.676
				c-0.64,0.9-0.428,2.149,0.473,2.788l5.27,3.742l6.454-6.455L62.383,44.126z"/>
		</g>
	</g>
</g>
<g id="R-Green" style="display:none;">
	<circle style="display:inline;fill:#77E0C4;" cx="55" cy="55" r="55"/>
	<g style="display:inline;">
		<g>
			<path style="fill:#009687;" d="M84.485,45.962L68,39.255c-1.59-0.637-3.408-0.19-4.522,1.11
				c-4.507,10.943-17.358,25.359-26.794,24.603H30c-4.283,0-7,4.578-7,8.86v0.14c0,3.44,1.137,5.752,6.09,7.435
				C34.062,83.093,51,82.968,51,82.968h32c2.209,0,4-1.791,4-4v-4v-24v-1.291C87,48.04,86.004,46.569,84.485,45.962z"/>
		</g>
		<g>
			<path style="fill:#00B8A5;" d="M68,39.255c-1.59-0.637-3.408-0.19-4.522,1.11c-4.507,10.943-17.358,25.359-26.794,24.603H30
				c-4.283,0-7,4.578-7,8.86v0.14c0,3.44,1.137,5.752,6.09,7.435c1.35,0.459,3.583,0.783,6.117,1.014L75.37,42.253L68,39.255z"/>
		</g>
		<g>
			<path style="fill:#0A3631;" d="M87,73.271c-23,0-17.5,3.688-31,3.688c-13.121,0-31.904-3.777-32.949-3.99
				C23.019,73.244,23,73.526,23,73.817v0.141c0,3.439,1.137,5.752,6.09,7.436C34.062,83.083,51,82.958,51,82.958h32
				c2.209,0,4-1.791,4-4V73.271z"/>
		</g>
		<g>
			<path style="fill:#D7FCF9;" d="M87,78.998c0,2.21-1.79,4-4,4H51c0,0-16.939,0.12-21.91-1.569c-2.059-0.7-3.46-1.511-4.39-2.461
				c0.1,0.011,0.199,0.025,0.3,0.03c44,1.97,50,0,50,0H87z"/>
		</g>
		<g>
			<path style="fill:#14635B;" d="M23.051,72.968C23.019,73.244,23,73.526,23,73.817v0.141c0,3.439,1.137,5.752,6.09,7.436
				c1.352,0.459,3.588,0.783,6.127,1.014l6.459-6.459C32.219,74.813,23.742,73.108,23.051,72.968z"/>
		</g>
		<g>
			<path style="fill:#AAF0E9;" d="M55.667,76.968h2c0-6.481,8.032-13.083,15.917-13.083c5.324,0,10.07-1.369,13.416-3.788v-2.58
				c-2.97,2.773-7.819,4.368-13.416,4.368C64.541,61.885,55.667,69.356,55.667,76.968z"/>
		</g>
		<g>
			<path style="fill:#AAF0E9;" d="M44.34,61.852c-0.768,0.64-0.945,1.748-0.415,2.597l2.983,4.773
				c0.287,0.459,0.746,0.781,1.275,0.895c0.528,0.114,1.08,0.01,1.53-0.291l11.257-7.504c0.498-0.332,0.821-0.871,0.88-1.467
				c0.06-0.597-0.152-1.188-0.575-1.611l-4.984-4.983c-0.73-0.731-1.899-0.784-2.694-0.122L44.34,61.852z"/>
		</g>
		<g>
			<path style="fill:#00B8A5;" d="M87,49.677v7.84c-2.97,2.779-7.82,4.37-13.42,4.37c-2.061,0-4.109,0.39-6.05,1.089
				c-6.14-4.529-10.24-10.869-10.66-11.529c2.81-3.63,5.14-7.54,6.601-11.08c1.119-1.3,2.94-1.75,4.529-1.109l16.48,6.709
				C86,46.566,87,48.046,87,49.677z"/>
		</g>
		<g>
			<path style="fill:#00D6C1;" d="M46.908,69.222l-2.983-4.773c-0.228-0.364-0.317-0.775-0.293-1.178
				c-2.407,1.221-4.777,1.865-6.963,1.688h-6.681c-2.979,0-5.199,2.211-6.27,5c0.932,0,15.081,6.088,23.503-0.365
				C47.104,69.482,46.996,69.361,46.908,69.222z"/>
		</g>
		<g>
			<path style="fill:#D7FCF9;" d="M56.291,54.26c-0.73-0.731-1.899-0.785-2.694-0.122l-9.257,7.713
				c-0.768,0.641-0.945,1.749-0.415,2.598l2.983,4.773c0.192,0.308,0.467,0.547,0.783,0.71l12.137-12.136L56.291,54.26z"/>
		</g>
		<g>
			<path style="fill:#D7FCF9;" d="M68,39.257l5.971,2.431c-0.18-4.229-1.263-6.751-2.971-6.751c-0.974,0-3.835,3.869-3.985,4.074
				C67.347,39.054,67.679,39.127,68,39.257z"/>
		</g>
		<g>
			<path style="fill:#00D6C1;" d="M68,39.257c-1.59-0.641-3.41-0.19-4.529,1.109c-1.461,3.54-3.791,7.45-6.601,11.08
				c0.239,0.377,1.683,2.606,4.016,5.291l14.482-14.48L68,39.257z"/>
		</g>
		<g>
			<path style="fill:#FFFFFF;" d="M25,78.999c-0.101-0.006-0.2-0.021-0.3-0.031c0.93,0.951,2.33,1.76,4.39,2.461
				c1.392,0.473,3.722,0.804,6.356,1.035l2.945-2.945C34.367,79.388,29.935,79.22,25,78.999z"/>
		</g>
		<g>
			<path style="fill:#AAF0E9;" d="M71.169,55.901c-1.439,2.025-4.248,2.502-6.274,1.063l-7.746-5.501
				c-0.9-0.639-1.112-1.888-0.473-2.788l2.895-4.077c0.64-0.9,1.889-1.112,2.789-0.473l7.746,5.5
				C72.131,51.065,72.607,53.874,71.169,55.901z"/>
		</g>
		<g>
			<path style="fill:#D7FCF9;" d="M62.359,44.126c-0.9-0.639-2.149-0.428-2.789,0.473l-2.895,4.077
				c-0.64,0.9-0.428,2.149,0.473,2.788l5.27,3.742l6.454-6.455L62.359,44.126z"/>
		</g>
	</g>
</g>
<g id="Red" style="display:none;">
	<g style="display:inline;">
		<g>
			<path style="fill:#C23023;" d="M84.509,45.962l-16.485-6.707c-1.59-0.637-3.408-0.19-4.522,1.11
				c-4.507,10.943-17.358,25.359-26.794,24.603h-6.684c-4.283,0-7,4.578-7,8.86v0.14c0,3.44,1.137,5.752,6.09,7.436
				c4.973,1.689,21.91,1.564,21.91,1.564h32c2.209,0,4-1.791,4-4v-4v-24v-1.291C87.024,48.04,86.028,46.569,84.509,45.962z"/>
		</g>
		<g>
			<path style="fill:#E54B44;" d="M68.024,39.255c-1.59-0.637-3.408-0.19-4.522,1.11c-4.507,10.943-17.358,25.359-26.794,24.603
				h-6.684c-4.283,0-7,4.578-7,8.86v0.14c0,3.44,1.137,5.752,6.09,7.436c1.35,0.459,3.583,0.783,6.117,1.014l40.163-40.164
				L68.024,39.255z"/>
		</g>
		<g>
			<path style="fill:#4A1410;" d="M87.024,73.271c-23,0-17.5,3.688-31,3.688c-13.121,0-31.904-3.777-32.949-3.99
				c-0.032,0.276-0.051,0.559-0.051,0.85v0.141c0,3.439,1.137,5.752,6.09,7.436c4.973,1.689,21.91,1.564,21.91,1.564h32
				c2.209,0,4-1.791,4-4V73.271z"/>
		</g>
		<g>
			<path style="fill:#FFEFED;" d="M87.024,78.998c0,2.21-1.79,4-4,4h-32c0,0-16.939,0.12-21.91-1.569
				c-2.059-0.7-3.46-1.511-4.39-2.461c0.1,0.011,0.199,0.025,0.3,0.03c44,1.97,50,0,50,0H87.024z"/>
		</g>
		<g>
			<path style="fill:#7D261E;" d="M23.075,72.968c-0.032,0.276-0.051,0.559-0.051,0.85v0.141c0,3.439,1.137,5.752,6.09,7.436
				c1.352,0.459,3.588,0.783,6.127,1.014l6.459-6.459C32.242,74.813,23.766,73.108,23.075,72.968z"/>
		</g>
		<g>
			<path style="fill:#FFD7D4;" d="M55.691,76.968h2c0-6.48,8.032-13.083,15.917-13.083c5.324,0,10.07-1.369,13.416-3.788v-2.58
				c-2.97,2.773-7.819,4.368-13.416,4.368C64.565,61.885,55.691,69.356,55.691,76.968z"/>
		</g>
		<g>
			<path style="fill:#FFD7D4;" d="M44.364,61.852c-0.768,0.64-0.945,1.748-0.415,2.597l2.983,4.774
				c0.287,0.459,0.746,0.781,1.275,0.895c0.528,0.114,1.08,0.01,1.53-0.291l11.257-7.504c0.498-0.332,0.821-0.871,0.88-1.467
				c0.06-0.597-0.152-1.188-0.575-1.611l-4.984-4.983c-0.73-0.731-1.899-0.784-2.694-0.122L44.364,61.852z"/>
		</g>
		<g>
			<path style="fill:#E54B44;" d="M87.024,49.677v7.84c-2.97,2.779-7.82,4.37-13.42,4.37c-2.061,0-4.109,0.39-6.05,1.089
				c-6.14-4.529-10.24-10.869-10.66-11.529c2.81-3.63,5.14-7.54,6.601-11.08c1.119-1.3,2.939-1.75,4.529-1.109l16.48,6.709
				C86.024,46.566,87.024,48.046,87.024,49.677z"/>
		</g>
		<g>
			<path style="fill:#FF6C5E;" d="M46.932,69.222l-2.983-4.774c-0.228-0.364-0.317-0.775-0.293-1.178
				c-2.407,1.221-4.777,1.865-6.963,1.688h-6.681c-2.979,0-5.199,2.211-6.27,5c0.932,0,15.081,6.088,23.503-0.365
				C47.128,69.482,47.02,69.361,46.932,69.222z"/>
		</g>
		<g>
			<path style="fill:#FFEFED;" d="M56.315,54.26c-0.73-0.731-1.899-0.785-2.694-0.122l-9.257,7.713
				c-0.768,0.641-0.945,1.749-0.415,2.598l2.983,4.774c0.192,0.308,0.467,0.547,0.783,0.71l12.137-12.136L56.315,54.26z"/>
		</g>
		<g>
			<path style="fill:#FFEFED;" d="M68.024,39.257l5.971,2.431c-0.18-4.229-1.263-6.751-2.971-6.751
				c-0.974,0-3.835,3.869-3.985,4.074C67.37,39.054,67.702,39.127,68.024,39.257z"/>
		</g>
		<g>
			<path style="fill:#FF6C5E;" d="M68.024,39.257c-1.59-0.641-3.41-0.19-4.529,1.109c-1.461,3.54-3.791,7.45-6.601,11.08
				c0.239,0.377,1.683,2.606,4.016,5.291l14.482-14.48L68.024,39.257z"/>
		</g>
		<g>
			<path style="fill:#FFFFFF;" d="M25.024,78.999c-0.101-0.006-0.2-0.021-0.3-0.031c0.93,0.951,2.33,1.76,4.39,2.461
				c1.392,0.473,3.722,0.804,6.355,1.035l2.945-2.945C34.391,79.388,29.958,79.22,25.024,78.999z"/>
		</g>
		<g>
			<path style="fill:#FFD7D4;" d="M71.193,55.901c-1.439,2.025-4.248,2.502-6.274,1.063l-7.746-5.501
				c-0.9-0.639-1.112-1.888-0.473-2.788l2.895-4.077c0.64-0.9,1.889-1.112,2.789-0.473l7.746,5.5
				C72.155,51.065,72.631,53.874,71.193,55.901z"/>
		</g>
		<g>
			<path style="fill:#FFEFED;" d="M62.383,44.126c-0.9-0.639-2.149-0.428-2.789,0.473L56.7,48.676
				c-0.64,0.9-0.428,2.149,0.473,2.788l5.27,3.742l6.454-6.455L62.383,44.126z"/>
		</g>
	</g>
</g>
<g id="R-Red" style="display:none;">
	<circle style="display:inline;fill:#FABBAF;" cx="55" cy="55" r="55"/>
	<g style="display:inline;">
		<g>
			<path style="fill:#C23023;" d="M84.485,45.962L68,39.255c-1.59-0.637-3.408-0.19-4.522,1.11
				c-4.507,10.943-17.358,25.359-26.794,24.603H30c-4.283,0-7,4.578-7,8.86v0.14c0,3.44,1.137,5.752,6.09,7.436
				C34.062,83.093,51,82.968,51,82.968h32c2.209,0,4-1.791,4-4v-4v-24v-1.291C87,48.04,86.004,46.569,84.485,45.962z"/>
		</g>
		<g>
			<path style="fill:#E54B44;" d="M68,39.255c-1.59-0.637-3.408-0.19-4.522,1.11c-4.507,10.943-17.358,25.359-26.794,24.603H30
				c-4.283,0-7,4.578-7,8.86v0.14c0,3.44,1.137,5.752,6.09,7.436c1.35,0.459,3.583,0.783,6.117,1.014L75.37,42.253L68,39.255z"/>
		</g>
		<g>
			<path style="fill:#4A1410;" d="M87,73.271c-23,0-17.5,3.688-31,3.688c-13.121,0-31.904-3.777-32.949-3.99
				C23.019,73.244,23,73.526,23,73.817v0.141c0,3.439,1.137,5.752,6.09,7.436C34.062,83.083,51,82.958,51,82.958h32
				c2.209,0,4-1.791,4-4V73.271z"/>
		</g>
		<g>
			<path style="fill:#FFEFED;" d="M87,78.998c0,2.21-1.79,4-4,4H51c0,0-16.94,0.12-21.91-1.569c-2.059-0.7-3.46-1.511-4.39-2.461
				c0.1,0.011,0.199,0.025,0.3,0.03c44,1.97,50,0,50,0H87z"/>
		</g>
		<g>
			<path style="fill:#7D261E;" d="M23.051,72.968C23.019,73.244,23,73.526,23,73.817v0.141c0,3.439,1.137,5.752,6.09,7.436
				c1.352,0.459,3.588,0.783,6.127,1.014l6.459-6.459C32.219,74.813,23.742,73.108,23.051,72.968z"/>
		</g>
		<g>
			<path style="fill:#FFD7D4;" d="M55.667,76.968h2c0-6.48,8.032-13.083,15.917-13.083c5.324,0,10.07-1.369,13.416-3.788v-2.58
				c-2.97,2.773-7.819,4.368-13.416,4.368C64.541,61.885,55.667,69.356,55.667,76.968z"/>
		</g>
		<g>
			<path style="fill:#FFD7D4;" d="M44.34,61.852c-0.768,0.64-0.945,1.748-0.415,2.597l2.983,4.774
				c0.287,0.459,0.746,0.781,1.275,0.895c0.528,0.114,1.08,0.01,1.53-0.291l11.257-7.504c0.498-0.332,0.821-0.871,0.88-1.467
				c0.06-0.597-0.152-1.188-0.575-1.611l-4.984-4.983c-0.731-0.731-1.899-0.784-2.694-0.122L44.34,61.852z"/>
		</g>
		<g>
			<path style="fill:#E54B44;" d="M87,49.677v7.84c-2.97,2.779-7.82,4.37-13.42,4.37c-2.061,0-4.109,0.39-6.05,1.089
				c-6.14-4.529-10.24-10.869-10.66-11.529c2.81-3.63,5.14-7.54,6.601-11.08c1.119-1.3,2.94-1.75,4.529-1.109l16.48,6.709
				C86,46.566,87,48.046,87,49.677z"/>
		</g>
		<g>
			<path style="fill:#FF6C5E;" d="M46.908,69.222l-2.983-4.774c-0.228-0.364-0.317-0.775-0.293-1.178
				c-2.407,1.221-4.777,1.865-6.963,1.688h-6.681c-2.98,0-5.199,2.211-6.27,5c0.932,0,15.081,6.088,23.503-0.365
				C47.104,69.482,46.996,69.361,46.908,69.222z"/>
		</g>
		<g>
			<path style="fill:#FFEFED;" d="M56.291,54.26c-0.731-0.731-1.899-0.785-2.694-0.122l-9.257,7.713
				c-0.768,0.641-0.945,1.749-0.415,2.598l2.983,4.774c0.192,0.308,0.467,0.547,0.783,0.71l12.137-12.136L56.291,54.26z"/>
		</g>
		<g>
			<path style="fill:#FFEFED;" d="M68,39.257l5.971,2.431c-0.18-4.229-1.263-6.751-2.971-6.751c-0.974,0-3.835,3.869-3.985,4.074
				C67.347,39.054,67.679,39.127,68,39.257z"/>
		</g>
		<g>
			<path style="fill:#FF6C5E;" d="M68,39.257c-1.59-0.641-3.41-0.19-4.529,1.109c-1.461,3.54-3.791,7.45-6.601,11.08
				c0.239,0.377,1.683,2.606,4.016,5.291l14.482-14.48L68,39.257z"/>
		</g>
		<g>
			<path style="fill:#FFFFFF;" d="M25,78.999c-0.101-0.006-0.2-0.021-0.3-0.031c0.93,0.951,2.33,1.76,4.39,2.461
				c1.392,0.473,3.722,0.804,6.356,1.035l2.945-2.945C34.367,79.388,29.935,79.22,25,78.999z"/>
		</g>
		<g>
			<path style="fill:#FFD7D4;" d="M71.169,55.901c-1.439,2.025-4.248,2.502-6.274,1.063l-7.746-5.501
				c-0.9-0.639-1.112-1.888-0.473-2.788l2.895-4.077c0.64-0.9,1.889-1.112,2.789-0.473l7.746,5.5
				C72.131,51.065,72.607,53.874,71.169,55.901z"/>
		</g>
		<g>
			<path style="fill:#FFEFED;" d="M62.359,44.126c-0.9-0.639-2.149-0.428-2.789,0.473l-2.895,4.077
				c-0.64,0.9-0.428,2.149,0.473,2.788l5.27,3.742l6.454-6.455L62.359,44.126z"/>
		</g>
	</g>
</g>
<g id="Yellow" style="display:none;">
	<g style="display:inline;">
		<g>
			<path style="fill:#E07000;" d="M84.509,45.962l-16.485-6.707c-1.59-0.637-3.408-0.189-4.522,1.11
				c-4.507,10.943-17.358,25.359-26.794,24.603h-6.684c-4.283,0-7,4.578-7,8.86v0.14c0,3.44,1.137,5.752,6.09,7.436
				c4.973,1.689,21.91,1.564,21.91,1.564h32c2.209,0,4-1.791,4-4v-4v-24v-1.291C87.024,48.04,86.028,46.569,84.509,45.962z"/>
		</g>
		<g>
			<path style="fill:#FA9200;" d="M68.024,39.255c-1.59-0.637-3.408-0.189-4.522,1.11c-4.507,10.943-17.358,25.359-26.794,24.603
				h-6.684c-4.283,0-7,4.578-7,8.86v0.14c0,3.44,1.137,5.752,6.09,7.436c1.35,0.459,3.583,0.783,6.117,1.014l40.163-40.164
				L68.024,39.255z"/>
		</g>
		<g>
			<path style="fill:#3D320C;" d="M87.024,73.271c-23,0-17.5,3.688-31,3.688c-13.121,0-31.904-3.777-32.949-3.99
				c-0.032,0.276-0.051,0.559-0.051,0.85v0.141c0,3.439,1.137,5.752,6.09,7.436c4.973,1.689,21.91,1.564,21.91,1.564h32
				c2.209,0,4-1.791,4-4V73.271z"/>
		</g>
		<g>
			<path style="fill:#FFF5D9;" d="M87.024,78.998c0,2.21-1.79,4-4,4h-32c0,0-16.94,0.12-21.91-1.569
				c-2.059-0.7-3.46-1.511-4.39-2.461c0.1,0.011,0.199,0.025,0.3,0.03c44,1.97,50,0,50,0H87.024z"/>
		</g>
		<g>
			<path style="fill:#66510D;" d="M23.075,72.968c-0.032,0.276-0.051,0.559-0.051,0.85v0.141c0,3.439,1.137,5.752,6.09,7.436
				c1.352,0.459,3.588,0.783,6.127,1.014l6.459-6.459C32.242,74.813,23.766,73.108,23.075,72.968z"/>
		</g>
		<g>
			<path style="fill:#FFE9A1;" d="M55.691,76.968h2c0-6.48,8.032-13.083,15.917-13.083c5.324,0,10.07-1.369,13.416-3.788v-2.58
				c-2.97,2.773-7.819,4.368-13.416,4.368C64.565,61.885,55.691,69.356,55.691,76.968z"/>
		</g>
		<g>
			<path style="fill:#FFE9A1;" d="M44.364,61.852c-0.767,0.64-0.945,1.748-0.415,2.597l2.983,4.774
				c0.287,0.459,0.746,0.781,1.275,0.895c0.528,0.114,1.08,0.01,1.53-0.291l11.257-7.504c0.498-0.332,0.821-0.871,0.88-1.467
				c0.06-0.597-0.152-1.188-0.575-1.611l-4.984-4.983c-0.731-0.731-1.899-0.784-2.694-0.122L44.364,61.852z"/>
		</g>
		<g>
			<path style="fill:#FA9200;" d="M87.024,49.677v7.84c-2.97,2.779-7.82,4.37-13.42,4.37c-2.061,0-4.109,0.39-6.05,1.089
				c-6.14-4.529-10.24-10.869-10.66-11.529c2.81-3.63,5.14-7.54,6.601-11.08c1.119-1.3,2.939-1.75,4.529-1.109l16.48,6.709
				C86.024,46.566,87.024,48.046,87.024,49.677z"/>
		</g>
		<g>
			<path style="fill:#FFAA00;" d="M46.932,69.222l-2.983-4.774c-0.227-0.364-0.317-0.775-0.293-1.178
				c-2.407,1.221-4.777,1.865-6.963,1.688h-6.681c-2.979,0-5.199,2.211-6.27,5c0.932,0,15.081,6.088,23.503-0.365
				C47.128,69.482,47.02,69.361,46.932,69.222z"/>
		</g>
		<g>
			<path style="fill:#FFF5D9;" d="M56.315,54.26c-0.731-0.731-1.899-0.785-2.694-0.122l-9.257,7.713
				c-0.767,0.641-0.945,1.749-0.415,2.598l2.983,4.774c0.192,0.308,0.467,0.547,0.783,0.71l12.137-12.136L56.315,54.26z"/>
		</g>
		<g>
			<path style="fill:#FFF5D9;" d="M68.024,39.257l5.971,2.431c-0.18-4.229-1.263-6.751-2.971-6.751
				c-0.974,0-3.835,3.869-3.985,4.074C67.37,39.054,67.702,39.127,68.024,39.257z"/>
		</g>
		<g>
			<path style="fill:#FFAA00;" d="M68.024,39.257c-1.59-0.641-3.41-0.19-4.529,1.109c-1.461,3.54-3.791,7.45-6.601,11.08
				c0.239,0.377,1.683,2.606,4.016,5.291l14.481-14.481L68.024,39.257z"/>
		</g>
		<g>
			<path style="fill:#FFFFFF;" d="M25.024,78.999c-0.101-0.006-0.2-0.021-0.3-0.031c0.93,0.951,2.33,1.76,4.39,2.461
				c1.392,0.473,3.722,0.804,6.355,1.035l2.945-2.945C34.391,79.388,29.958,79.22,25.024,78.999z"/>
		</g>
		<g>
			<path style="fill:#FFE9A1;" d="M71.193,55.901c-1.439,2.025-4.248,2.502-6.274,1.063l-7.746-5.501
				c-0.9-0.639-1.112-1.888-0.473-2.788l2.894-4.077c0.64-0.9,1.889-1.112,2.789-0.473l7.746,5.5
				C72.155,51.065,72.631,53.874,71.193,55.901z"/>
		</g>
		<g>
			<path style="fill:#FFF5D9;" d="M62.383,44.126c-0.9-0.639-2.149-0.428-2.789,0.473L56.7,48.676
				c-0.64,0.9-0.428,2.149,0.473,2.788l5.27,3.742l6.454-6.455L62.383,44.126z"/>
		</g>
	</g>
</g>
<g id="R-Yellow" style="display:none;">
	<circle style="display:inline;fill:#FFD75E;" cx="55" cy="55" r="55"/>
	<g style="display:inline;">
		<g>
			<path style="fill:#E07000;" d="M84.485,45.962L68,39.255c-1.59-0.637-3.408-0.19-4.523,1.11
				c-4.507,10.943-17.358,25.359-26.794,24.603H30c-4.283,0-7,4.578-7,8.86v0.14c0,3.44,1.137,5.752,6.09,7.436
				C34.062,83.093,51,82.968,51,82.968h32c2.209,0,4-1.791,4-4v-4v-24v-1.291C87,48.04,86.004,46.569,84.485,45.962z"/>
		</g>
		<g>
			<path style="fill:#FA9200;" d="M68,39.255c-1.59-0.637-3.408-0.19-4.523,1.11c-4.507,10.943-17.358,25.359-26.794,24.603H30
				c-4.283,0-7,4.578-7,8.86v0.14c0,3.44,1.137,5.752,6.09,7.436c1.35,0.459,3.583,0.783,6.117,1.014L75.37,42.253L68,39.255z"/>
		</g>
		<g>
			<path style="fill:#3D320C;" d="M87,73.271c-23,0-17.5,3.688-31,3.688c-13.121,0-31.904-3.777-32.949-3.99
				C23.019,73.244,23,73.526,23,73.817v0.141c0,3.439,1.137,5.752,6.09,7.436C34.062,83.083,51,82.958,51,82.958h32
				c2.209,0,4-1.791,4-4V73.271z"/>
		</g>
		<g>
			<path style="fill:#FFF5D9;" d="M87,78.998c0,2.21-1.79,4-4,4H51c0,0-16.939,0.12-21.91-1.569c-2.059-0.7-3.46-1.511-4.39-2.461
				c0.1,0.011,0.199,0.025,0.3,0.03c44,1.97,50,0,50,0H87z"/>
		</g>
		<g>
			<path style="fill:#66510D;" d="M23.051,72.968C23.019,73.244,23,73.526,23,73.817v0.141c0,3.439,1.137,5.752,6.09,7.436
				c1.352,0.459,3.588,0.783,6.127,1.014l6.459-6.459C32.219,74.813,23.742,73.108,23.051,72.968z"/>
		</g>
		<g>
			<path style="fill:#FFE9A1;" d="M55.667,76.968h2c0-6.48,8.032-13.083,15.917-13.083c5.324,0,10.07-1.369,13.416-3.788v-2.58
				c-2.97,2.773-7.819,4.368-13.416,4.368C64.541,61.885,55.667,69.356,55.667,76.968z"/>
		</g>
		<g>
			<path style="fill:#FFE9A1;" d="M44.34,61.852c-0.768,0.64-0.945,1.748-0.415,2.597l2.983,4.773
				c0.287,0.459,0.746,0.781,1.275,0.895c0.528,0.114,1.08,0.01,1.53-0.291l11.257-7.504c0.498-0.332,0.821-0.871,0.88-1.467
				c0.06-0.597-0.152-1.188-0.575-1.611l-4.984-4.983c-0.73-0.731-1.899-0.784-2.694-0.122L44.34,61.852z"/>
		</g>
		<g>
			<path style="fill:#FA9200;" d="M87,49.677v7.84c-2.97,2.779-7.82,4.37-13.42,4.37c-2.061,0-4.109,0.39-6.05,1.089
				c-6.14-4.529-10.24-10.869-10.66-11.529c2.81-3.63,5.14-7.54,6.601-11.08c1.119-1.3,2.939-1.75,4.529-1.109l16.48,6.709
				C86,46.566,87,48.046,87,49.677z"/>
		</g>
		<g>
			<path style="fill:#FFAA00;" d="M46.908,69.222l-2.983-4.773c-0.228-0.364-0.317-0.775-0.293-1.178
				c-2.407,1.221-4.777,1.865-6.963,1.688h-6.681c-2.979,0-5.199,2.211-6.27,5c0.932,0,15.081,6.088,23.503-0.365
				C47.104,69.482,46.996,69.361,46.908,69.222z"/>
		</g>
		<g>
			<path style="fill:#FFF5D9;" d="M56.291,54.26c-0.73-0.731-1.899-0.785-2.694-0.122l-9.257,7.713
				c-0.768,0.641-0.945,1.749-0.415,2.598l2.983,4.773c0.192,0.308,0.467,0.547,0.783,0.71l12.137-12.136L56.291,54.26z"/>
		</g>
		<g>
			<path style="fill:#FFF5D9;" d="M68,39.257l5.971,2.431c-0.18-4.229-1.263-6.751-2.971-6.751c-0.974,0-3.835,3.869-3.985,4.074
				C67.347,39.054,67.679,39.127,68,39.257z"/>
		</g>
		<g>
			<path style="fill:#FFAA00;" d="M68,39.257c-1.59-0.641-3.41-0.19-4.529,1.109c-1.461,3.54-3.791,7.45-6.601,11.08
				c0.239,0.377,1.683,2.606,4.016,5.291l14.481-14.48L68,39.257z"/>
		</g>
		<g>
			<path style="fill:#FFFFFF;" d="M25,78.999c-0.101-0.006-0.2-0.021-0.3-0.031c0.93,0.951,2.33,1.76,4.39,2.461
				c1.392,0.473,3.722,0.804,6.356,1.035l2.945-2.945C34.367,79.388,29.935,79.22,25,78.999z"/>
		</g>
		<g>
			<path style="fill:#FFE9A1;" d="M71.169,55.901c-1.439,2.025-4.248,2.502-6.274,1.063l-7.746-5.501
				c-0.9-0.639-1.112-1.888-0.473-2.788l2.895-4.077c0.64-0.9,1.889-1.112,2.789-0.473l7.746,5.5
				C72.131,51.065,72.607,53.874,71.169,55.901z"/>
		</g>
		<g>
			<path style="fill:#FFF5D9;" d="M62.359,44.126c-0.9-0.639-2.149-0.428-2.789,0.473l-2.895,4.077
				c-0.64,0.9-0.428,2.149,0.473,2.788l5.27,3.742l6.454-6.455L62.359,44.126z"/>
		</g>
	</g>
</g>
</svg>
